<svg width="32" height="32" viewBox="0 0 32 32" fill="none" xmlns="http://www.w3.org/2000/svg">
<g id="dashboard-monitoring-icon 2" clip-path="url(#clip0_62_5241)">
<path id="Vector" fill-rule="evenodd" clip-rule="evenodd" d="M32 0V26.7409H21.0481V29.433H24.2488V32H7.68313V29.433H11.1112V26.7409H0V0H32ZM3.79562 19.7918H25.2237V20.9781H3.79562V19.7918ZM3.79562 16.625H17.4688V17.8113H3.79562V16.625ZM24.7075 10.001L28.3356 10.0167C28.3325 11.2683 27.9431 12.4664 27.2537 13.3449C27.0911 13.5516 26.9134 13.7387 26.7231 13.9038L24.7075 10.001ZM24.3356 9.06976L24.1419 4.05313C24.1381 3.95395 24.1975 3.86972 24.2738 3.865C24.2962 3.86343 24.3225 3.86185 24.3519 3.86106C24.3763 3.85949 24.4025 3.85949 24.43 3.8587C25.4956 3.84375 26.4731 4.36643 27.2038 5.23625C27.9344 6.10607 28.4175 7.32382 28.4937 8.69901C28.4987 8.79819 28.4412 8.88399 28.3644 8.89108L24.4844 9.25003C24.4081 9.25632 24.3412 9.18233 24.3363 9.08315C24.3356 9.07842 24.3356 9.07449 24.3356 9.06976ZM24.4263 4.21765L24.6063 8.87769L28.2038 8.54551C28.1025 7.33878 27.6637 6.27216 27.0156 5.50074C26.335 4.68995 25.4244 4.20348 24.4325 4.21765H24.4263ZM23.9013 9.78609L25.8463 14.1439C25.255 14.5855 24.5838 14.8185 23.9013 14.8185C21.7525 14.8185 20.0106 12.5648 20.0106 9.78609C20.0106 7.2884 21.4263 5.16934 23.3363 4.80646L23.9013 9.78609ZM12.7975 4.40342L12.4875 3.90672C12.4388 3.82092 12.4237 3.73984 12.4438 3.66506C12.4963 3.46354 12.685 3.48322 12.8156 3.49424C13.1869 3.52809 14.0625 3.53833 14.2537 3.54777C14.3938 3.56037 14.4756 3.69261 14.4519 3.86658C14.4131 4.10981 14.235 5.28112 14.1713 5.72587C14.1488 5.88015 14.1119 6.08088 13.9575 6.09584C13.895 6.10214 13.8363 6.06435 13.7812 5.98485L13.4719 5.48736L13.3281 5.2575L11.395 6.8342C11.3706 7.44741 10.9681 7.93545 10.475 7.93545C9.96625 7.93545 9.55375 7.41592 9.55375 6.77517C9.55375 6.74919 9.55437 6.72321 9.55562 6.69802L8.48687 5.72587C8.33288 5.86177 8.14928 5.93436 7.96125 5.93368C7.695 5.93368 7.45563 5.7912 7.2875 5.56371L5.49563 6.77359C5.49937 6.81295 5.50063 6.8531 5.50063 6.89403C5.50063 7.53478 5.08812 8.05432 4.58 8.05432C4.07125 8.05432 3.65875 7.53478 3.65875 6.89403C3.65875 6.25327 4.07125 5.73374 4.58 5.73374C4.76437 5.73374 4.93563 5.80222 5.08 5.91951L7.05188 4.58841C7.12188 4.03582 7.5025 3.61311 7.96125 3.61311C8.47 3.61311 8.8825 4.13264 8.8825 4.77339C8.8825 4.79858 8.88188 4.82456 8.88062 4.85054L9.94938 5.82269C10.1035 5.68724 10.287 5.6147 10.475 5.61488C10.7063 5.61488 10.9175 5.72272 11.0794 5.89983L12.8363 4.4664L12.7975 4.40342ZM13.2212 7.39703H14.4913C14.5644 7.39703 14.6244 7.4726 14.6244 7.5647V13.7794C14.6244 13.8715 14.5644 13.9471 14.4913 13.9471H13.2212C13.1487 13.9471 13.0881 13.8715 13.0881 13.7794V7.5647C13.0881 7.4726 13.1481 7.39703 13.2212 7.39703ZM10.1294 9.52711H11.3994C11.4725 9.52711 11.5325 9.60268 11.5325 9.69478V13.7794C11.5325 13.8715 11.4725 13.9471 11.3994 13.9471H10.1294C10.0563 13.9471 9.99625 13.8715 9.99625 13.7794V9.69478C9.99625 9.60268 10.0563 9.52711 10.1294 9.52711ZM7.03687 7.39703H8.3075C8.38062 7.39703 8.44 7.4726 8.44 7.5647V13.7794C8.44 13.8715 8.38 13.9471 8.3075 13.9471H7.03687C6.96437 13.9471 6.90438 13.8715 6.90438 13.7794V7.5647C6.90438 7.4726 6.96375 7.39703 7.03687 7.39703ZM3.94438 9.87031H5.215C5.28813 9.87031 5.3475 9.94667 5.3475 10.038V13.7794C5.3475 13.8715 5.2875 13.9471 5.215 13.9471H3.94438C3.87188 13.9471 3.81188 13.8715 3.81188 13.7794V10.038C3.81188 9.94588 3.87125 9.87031 3.94438 9.87031ZM0.955 23.3144H31.0406V1.20279H0.955V23.3144Z" fill="black"/>
</g>
<defs>
<clipPath id="clip0_62_5241">
<rect width="32" height="32" fill="white"/>
</clipPath>
</defs>
</svg>
