<svg width="16" height="16" viewBox="0 0 16 16" fill="none" xmlns="http://www.w3.org/2000/svg">
<g id="github">
<path id="Vector" d="M8.00067 1.49756C6.41765 1.49762 4.88631 2.06097 3.68065 3.08679C2.47498 4.11261 1.67367 5.53397 1.42009 7.09655C1.16651 8.65912 1.47721 10.2609 2.2966 11.6154C3.11599 12.9698 4.39059 13.9885 5.89235 14.4892C6.22568 14.5476 6.35068 14.3476 6.35068 14.1726C6.35068 14.0142 6.34234 13.4892 6.34234 12.9309C4.66734 13.2392 4.234 12.5226 4.10067 12.1476C3.95272 11.7829 3.71819 11.4597 3.41734 11.2059C3.184 11.0809 2.85067 10.7726 3.409 10.7642C3.62219 10.7874 3.82666 10.8616 4.00509 10.9805C4.18352 11.0995 4.33065 11.2597 4.434 11.4476C4.52518 11.6114 4.64779 11.7555 4.7948 11.8719C4.9418 11.9882 5.11032 12.0744 5.29069 12.1255C5.47106 12.1766 5.65974 12.1916 5.84592 12.1696C6.0321 12.1477 6.21212 12.0892 6.37566 11.9976C6.40452 11.6586 6.55556 11.3418 6.80067 11.1059C5.31734 10.9392 3.76734 10.3642 3.76734 7.81424C3.75797 7.15168 4.00246 6.51063 4.45067 6.02258C4.24686 5.44672 4.2707 4.81477 4.51734 4.25591C4.51734 4.25591 5.07565 4.0809 6.35067 4.93924C7.44153 4.63923 8.59314 4.63923 9.684 4.93924C10.959 4.07258 11.5173 4.25591 11.5173 4.25591C11.764 4.81476 11.7878 5.44673 11.584 6.02258C12.0336 6.50979 12.2783 7.1514 12.2673 7.81424C12.2673 10.3726 10.709 10.9392 9.22567 11.1059C9.38477 11.2672 9.5073 11.4608 9.58495 11.6736C9.6626 11.8864 9.69354 12.1134 9.67567 12.3392C9.67567 13.2309 9.66733 13.9476 9.66733 14.1726C9.66733 14.3476 9.79233 14.5559 10.1257 14.4892C11.6248 13.9845 12.8957 12.9634 13.7116 11.6083C14.5275 10.2531 14.8353 8.65211 14.5799 7.09105C14.3246 5.52999 13.5228 4.11047 12.3176 3.0859C11.1125 2.06133 9.58248 1.49838 8.00067 1.49756Z" fill="#292F36"/>
</g>
</svg>
