<svg width="16" height="16" viewBox="0 0 16 16" fill="none" xmlns="http://www.w3.org/2000/svg">
<g id="icon-instagram" clip-path="url(#clip0_369_2472)">
<g id="Shape">
<path fill-rule="evenodd" clip-rule="evenodd" d="M6.49293 5.01225C7.11526 4.68933 7.82357 4.57087 8.51711 4.67371C9.22454 4.77862 9.87948 5.10826 10.3852 5.61397C10.8909 6.11967 11.2205 6.77461 11.3254 7.48205C11.4283 8.17558 11.3098 8.88389 10.9869 9.50622C10.664 10.1286 10.1531 10.6332 9.52679 10.9484C8.90053 11.2637 8.19081 11.3734 7.49859 11.262C6.80638 11.1506 6.16691 10.8238 5.67114 10.328C5.17537 9.83224 4.84855 9.19277 4.73716 8.50056C4.62577 7.80834 4.73549 7.09862 5.05071 6.47236C5.36593 5.84609 5.87059 5.33516 6.49293 5.01225ZM8.32153 5.99262C7.9054 5.93092 7.48042 6.00199 7.10702 6.19574C6.73362 6.38949 6.43082 6.69605 6.24169 7.07181C6.05256 7.44757 5.98673 7.8734 6.05356 8.28873C6.12039 8.70406 6.31649 9.08774 6.61395 9.3852C6.91141 9.68266 7.29509 9.87876 7.71042 9.94559C8.12575 10.0124 8.55158 9.94659 8.92734 9.75746C9.3031 9.56833 9.60966 9.26553 9.80341 8.89213C9.99716 8.51873 10.0682 8.09375 10.0065 7.67762C9.94358 7.25316 9.7458 6.8602 9.44237 6.55678C9.13895 6.25336 8.74599 6.05557 8.32153 5.99262Z" fill="#292F36"/>
<path d="M11.666 3.6665C11.2978 3.6665 10.9993 3.96498 10.9993 4.33317C10.9993 4.70136 11.2978 4.99984 11.666 4.99984H11.6727C12.0409 4.99984 12.3393 4.70136 12.3393 4.33317C12.3393 3.96498 12.0409 3.6665 11.6727 3.6665H11.666Z" fill="#292F36"/>
<path fill-rule="evenodd" clip-rule="evenodd" d="M0.666016 4.6665C0.666016 2.45736 2.45688 0.666504 4.66602 0.666504H11.3327C13.5418 0.666504 15.3327 2.45736 15.3327 4.6665V11.3332C15.3327 13.5423 13.5418 15.3332 11.3327 15.3332H4.66602C2.45688 15.3332 0.666016 13.5423 0.666016 11.3332V4.6665ZM4.66602 1.99984C3.19326 1.99984 1.99935 3.19374 1.99935 4.6665V11.3332C1.99935 12.8059 3.19326 13.9998 4.66602 13.9998H11.3327C12.8054 13.9998 13.9993 12.8059 13.9993 11.3332V4.6665C13.9993 3.19374 12.8054 1.99984 11.3327 1.99984H4.66602Z" fill="#292F36"/>
</g>
</g>
<defs>
<clipPath id="clip0_369_2472">
<rect width="16" height="16" fill="white"/>
</clipPath>
</defs>
</svg>
